<?xml version="1.0" standalone="no"?>
<!DOCTYPE svg PUBLIC "-//W3C//DTD SVG 20010904//EN"
 "http://www.w3.org/TR/2001/REC-SVG-20010904/DTD/svg10.dtd">
<svg version="1.0" xmlns="http://www.w3.org/2000/svg"
 width="219.000000pt" height="219.000000pt" viewBox="0 0 219.000000 219.000000"
 preserveAspectRatio="xMidYMid meet">
<metadata>
Created by potrace 1.11, written by Peter Selinger 2001-2013
</metadata>
<g transform="translate(0.000000,219.000000) scale(0.100000,-0.100000)"
fill="#000000" stroke="none">
<path d="M642 2093 l3 -97 445 0 445 -1 3 98 3 97 -451 0 -451 0 3 -97z"/>
<path d="M905 1781 c-148 -34 -260 -86 -374 -177 -162 -128 -288 -335 -326
-534 -14 -74 -14 -256 0 -327 74 -381 358 -660 742 -730 49 -9 225 -9 281 0
432 67 754 439 760 876 0 52 -4 117 -9 145 -5 28 -12 62 -14 76 -16 88 -97
258 -163 340 -94 117 -199 201 -327 261 -103 47 -96 45 -220 76 -11 3 -76 7
-145 8 -93 3 -145 -1 -205 -14z m311 -185 c402 -74 661 -483 554 -874 -86
-313 -365 -526 -685 -524 -122 1 -212 24 -327 84 -133 69 -266 213 -313 338
-9 25 -21 54 -26 65 -29 68 -40 215 -25 329 40 287 297 544 584 582 26 3 48 7
50 9 5 5 153 -3 188 -9z"/>
</g>
</svg>
